<svg width="165" height="35" viewBox="0 0 165 35" fill="none" xmlns="http://www.w3.org/2000/svg">
<path d="M0 29.14H21.79V33.66H0V29.14ZM157.58 14.63L164.45 7.05H159.33L153.7 13.35V7.05H149.62V22.98H153.72V16.27L159.74 22.98H165L157.58 14.63ZM24.19 15.68C24.08 18.68 23.7 19.25 22.04 19.25V22.99H22.66C26.83 22.99 27.82 20.84 27.97 16.05L28.15 10.75H32V22.98H36.08V7.05H24.47L24.19 15.68ZM6.48 18.42H15.08L16.51 22.98H21.28L14.85 3.82C14.23 1.97 13.51 0.5 11.05 0.5C8.59 0.5 7.84 1.97 7.18 3.82L0.440001 22.98H4.92L6.48 18.42ZM10.84 5.5H10.95L13.83 14.58H7.77L10.84 5.5ZM106.15 9.31H101.6V4.81H112.16V0.81H97.32V22.98H106.15C111.04 22.98 113.85 20.54 113.85 16.08C113.85 11.85 111 9.31 106.15 9.31ZM105.94 18.97H101.6V13.21H105.94C108.2 13.21 109.47 14.21 109.47 16.09C109.47 17.97 108.2 18.97 105.94 18.97ZM65.59 6.68V0.78H61.52V6.68C59.3829 6.7505 57.3611 7.6663 55.8986 9.2262C54.4362 10.7862 53.6526 12.8628 53.72 15C53.6472 17.1416 54.428 19.2244 55.8908 20.7903C57.3535 22.3563 59.3784 23.277 61.52 23.35V29.35H65.6V23.35C66.6608 23.3151 67.7044 23.0714 68.6708 22.6326C69.6373 22.1939 70.5077 21.5688 71.2323 20.7932C71.9568 20.0175 72.5212 19.1066 72.8932 18.1125C73.2652 17.1184 73.4374 16.0607 73.4 15C73.4428 13.9386 73.2737 12.8793 72.9028 11.884C72.5318 10.8886 71.9663 9.9771 71.2393 9.2026C70.5123 8.4282 69.6383 7.8062 68.6684 7.3731C67.6984 6.94 66.652 6.7044 65.59 6.68ZM61.53 19.5C60.4502 19.3814 59.4603 18.8431 58.7738 18.0013C58.0872 17.1595 57.759 16.0816 57.86 15C57.772 13.9211 58.1049 12.85 58.7891 12.0112C59.4732 11.1723 60.4555 10.6308 61.53 10.5V19.5ZM65.61 19.5V10.5C66.6845 10.6308 67.6668 11.1723 68.3509 12.0112C69.0351 12.85 69.368 13.9211 69.28 15C69.3757 16.0805 69.0456 17.1556 68.36 17.9963C67.6745 18.8369 66.6877 19.3765 65.61 19.5ZM88.69 18.09V12.72C88.69 8.8 86.2 6.35 82.02 6.35C77.84 6.35 75.4 8.95 75.2 11.66H79.33C79.47 11.08 80.09 10.05 82.01 10.05C82.369 10.0038 82.733 10.0416 83.074 10.1606C83.416 10.2796 83.725 10.4763 83.977 10.7354C84.229 10.9944 84.418 11.3086 84.528 11.653C84.638 11.9975 84.666 12.3628 84.61 12.72H80.61C76.99 12.72 74.84 14.63 74.84 17.79C74.8118 18.5441 74.9422 19.2957 75.2228 19.9962C75.5035 20.6967 75.9281 21.3304 76.4692 21.8564C77.0102 22.3824 77.6557 22.7889 78.3639 23.0497C79.072 23.3104 79.827 23.4195 80.58 23.37C81.4301 23.4147 82.278 23.2492 83.049 22.8882C83.82 22.5271 84.49 21.9817 85 21.3C85.332 21.8615 85.816 22.3173 86.397 22.6146C86.977 22.912 87.63 23.0387 88.28 22.98H89.69V19.3C89 19.3 88.69 18.97 88.69 18.09ZM84.61 17.09C84.627 17.4839 84.56 17.8769 84.413 18.243C84.267 18.6091 84.045 18.9401 83.762 19.2141C83.478 19.4881 83.14 19.6989 82.769 19.8327C82.398 19.9664 82.003 20.02 81.61 19.99C80.14 19.99 78.98 19.46 78.98 17.87C78.98 16.28 80.27 16.05 81.36 16.05H84.61V17.09ZM46.24 11.89H43.31V7.05H39.23V22.98H46.31C50.74 22.98 52.31 20.1 52.31 17.38C52.33 13.87 50.13 11.89 46.24 11.89ZM45.94 19.5H43.31V15.5H45.94C47.35 15.5 48.2 16.14 48.2 17.5C48.2 18.86 47.39 19.5 45.94 19.5ZM129.42 18.09V12.72C129.42 8.8 126.93 6.35 122.75 6.35C118.57 6.35 116.13 8.95 115.93 11.66H120.06C120.2 11.08 120.82 10.05 122.74 10.05C123.099 10.0038 123.463 10.0416 123.804 10.1606C124.146 10.2796 124.455 10.4763 124.707 10.7354C124.959 10.9944 125.148 11.3086 125.258 11.653C125.368 11.9975 125.396 12.3628 125.34 12.72H121.34C117.72 12.72 115.57 14.63 115.57 17.79C115.542 18.5441 115.672 19.2957 115.953 19.9962C116.233 20.6967 116.658 21.3304 117.199 21.8564C117.74 22.3824 118.386 22.7889 119.094 23.0497C119.802 23.3104 120.557 23.4195 121.31 23.37C122.168 23.4231 123.026 23.2617 123.807 22.9004C124.587 22.539 125.265 21.989 125.78 21.3C126.107 21.8517 126.582 22.3012 127.151 22.598C127.72 22.8948 128.36 23.0271 129 22.98H130.41V19.3C129.7 19.3 129.42 18.97 129.42 18.09ZM125.36 17.09C125.375 17.4835 125.307 17.8757 125.16 18.2411C125.013 18.6065 124.791 18.9368 124.508 19.2105C124.225 19.4841 123.887 19.695 123.517 19.8294C123.147 19.9637 122.753 20.0184 122.36 19.99C120.89 19.99 119.73 19.46 119.73 17.87C119.73 16.28 121.02 16.05 122.11 16.05H125.36V17.09ZM142.45 12.98H136.82V7.05H132.74V22.99H136.82V16.71H142.45V22.98H146.53V7.05H142.45V12.98Z" fill="#EF3124"/>
</svg>
