<svg width="48" height="48" viewBox="0 0 48 48" fill="none" xmlns="http://www.w3.org/2000/svg">
<path d="M24 0C19.2533 0 14.6131 1.40758 10.6663 4.04472C6.71955 6.68187 3.64341 10.4302 1.8269 14.8156C0.0103987 19.201 -0.46488 24.0266 0.461163 28.6822C1.38721 33.3378 3.67299 37.614 7.02945 40.9707C10.3859 44.3271 14.6623 46.6128 19.3178 47.5389C23.9734 48.465 28.799 47.9895 33.1845 46.173C37.5699 44.3565 41.3181 41.2806 43.9554 37.3338C46.5924 33.387 48 28.7467 48 24C47.9934 17.6369 45.4626 11.5363 40.9632 7.03686C36.4638 2.53744 30.363 0.00671958 24 0ZM24 44.3076C19.9835 44.3076 16.0572 43.1166 12.7177 40.8852C9.37809 38.6538 6.7752 35.4822 5.23815 31.7715C3.7011 28.0607 3.29895 23.9775 4.08252 20.0382C4.86609 16.0989 6.80022 12.4804 9.64029 9.64029C12.4804 6.80022 16.0989 4.86609 20.0382 4.08252C23.9775 3.29895 28.0607 3.7011 31.7715 5.23815C35.4822 6.77517 38.6538 9.37806 40.8852 12.7177C43.1166 16.0572 44.3076 19.9835 44.3076 24C44.3016 29.384 42.1602 34.5459 38.3529 38.3529C34.5459 42.1602 29.3841 44.3016 24 44.3076ZM33.2307 28.6154C33.2307 30.3291 32.55 31.9725 31.3383 33.1845C30.1266 34.3962 28.4829 35.0769 26.7692 35.0769H25.8462V36.9231C25.8462 37.4127 25.6516 37.8822 25.3054 38.2284C24.9592 38.5746 24.4896 38.7693 24 38.7693C23.5104 38.7693 23.0408 38.5746 22.6946 38.2284C22.3484 37.8822 22.1539 37.4127 22.1539 36.9231V35.0769H18.4615C17.9719 35.0769 17.5023 34.8825 17.1561 34.5363C16.8099 34.1901 16.6154 33.7203 16.6154 33.2307C16.6154 32.7411 16.8099 32.2716 17.1561 31.9254C17.5023 31.5792 17.9719 31.3845 18.4615 31.3845H26.7692C27.5037 31.3845 28.208 31.0929 28.7274 30.5736C29.2467 30.0543 29.5385 29.3498 29.5385 28.6154C29.5385 27.8809 29.2467 27.1766 28.7274 26.6572C28.208 26.1379 27.5037 25.8461 26.7692 25.8461H21.2308C19.5171 25.8461 17.8735 25.1654 16.6618 23.9536C15.45 22.7418 14.7692 21.0983 14.7692 19.3846C14.7692 17.6709 15.45 16.0274 16.6618 14.8156C17.8735 13.6038 19.5171 12.9231 21.2308 12.9231H22.1539V11.0769C22.1539 10.5873 22.3484 10.1177 22.6946 9.77148C23.0408 9.42528 23.5104 9.23076 24 9.23076C24.4896 9.23076 24.9592 9.42528 25.3054 9.77148C25.6516 10.1177 25.8462 10.5873 25.8462 11.0769V12.9231H29.5385C30.0282 12.9231 30.4977 13.1176 30.8439 13.4638C31.1901 13.81 31.3845 14.2796 31.3845 14.7692C31.3845 15.2589 31.1901 15.7284 30.8439 16.0747C30.4977 16.4209 30.0282 16.6154 29.5385 16.6154H21.2308C20.4963 16.6154 19.792 16.9071 19.2726 17.4265C18.7533 17.9458 18.4615 18.6502 18.4615 19.3846C18.4615 20.1191 18.7533 20.8234 19.2726 21.3428C19.792 21.8621 20.4963 22.1538 21.2308 22.1538H26.7692C28.4829 22.1538 30.1266 22.8346 31.3383 24.0464C32.55 25.2581 33.2307 26.9017 33.2307 28.6154Z" fill="#0AE360"/>
</svg>
